# xmcd CD database file
#
# Track frame offsets:
#	150
#	26938
#	55039
#	85087
#	127079
#	154692
#	189955
#
# Disc length: 3000 seconds
#
# Revision: 0
# Processed by: cddbd v1.5.2PL0 Copyright (c) Steve Scherf et al.
# Submitted via: CDex 1.51
#
DISCID=530bb607
DTITLE=Marti Serra - Marti Serra - Alguns moments bons
DYEAR=2008
DGENRE=Jazz
TTITLE0=Això rai
TTITLE1=Bye bye Blackbird
TTITLE2=Alguns moments bons
TTITLE3=Record de llum groga
TTITLE4=Little melonae
TTITLE5=Cançó de gràcies
TTITLE6=Bye-ya
EXTD=YEAR: 2008
EXTT0=
EXTT1=
EXTT2=
EXTT3=
EXTT4=
EXTT5=
EXTT6=
PLAYORDER=
